G04 PROTEUS RS274X GERBER FILE*
%FSLAX45Y45*%
%MOMM*%
G01*
%ADD14C,0.203200*%
%ADD46C,0.127000*%
%ADD47C,0.063500*%
%TD.AperFunction*%
D14*
X-9201000Y-1404800D02*
X-9201000Y-1531800D01*
X-9264500Y-1468300D02*
X-9137500Y-1468300D01*
X-8947000Y-1404800D02*
X-8947000Y-1531800D01*
X-9010500Y-1468300D02*
X-8883500Y-1468300D01*
X-8693000Y-1404800D02*
X-8693000Y-1531800D01*
X-8756500Y-1468300D02*
X-8629500Y-1468300D01*
X-8439000Y-1404800D02*
X-8439000Y-1531800D01*
X-8502500Y-1468300D02*
X-8375500Y-1468300D01*
X-8185000Y-1404800D02*
X-8185000Y-1531800D01*
X-8248500Y-1468300D02*
X-8121500Y-1468300D01*
X-7931000Y-1404800D02*
X-7931000Y-1531800D01*
X-7994500Y-1468300D02*
X-7867500Y-1468300D01*
X-9206880Y-1122860D02*
X-9206880Y-1249860D01*
X-9270380Y-1186360D02*
X-9143380Y-1186360D01*
X-8952880Y-1122860D02*
X-8952880Y-1249860D01*
X-9016380Y-1186360D02*
X-8889380Y-1186360D01*
X-8698880Y-1122860D02*
X-8698880Y-1249860D01*
X-8762380Y-1186360D02*
X-8635380Y-1186360D01*
X-8444880Y-1122860D02*
X-8444880Y-1249860D01*
X-8508380Y-1186360D02*
X-8381380Y-1186360D01*
X-8190880Y-1122860D02*
X-8190880Y-1249860D01*
X-8254380Y-1186360D02*
X-8127380Y-1186360D01*
X-7936880Y-1122860D02*
X-7936880Y-1249860D01*
X-8000380Y-1186360D02*
X-7873380Y-1186360D01*
X-9201000Y-838380D02*
X-9201000Y-965380D01*
X-9264500Y-901880D02*
X-9137500Y-901880D01*
X-8947000Y-838380D02*
X-8947000Y-965380D01*
X-9010500Y-901880D02*
X-8883500Y-901880D01*
X-8693000Y-838380D02*
X-8693000Y-965380D01*
X-8756500Y-901880D02*
X-8629500Y-901880D01*
X-8439000Y-838380D02*
X-8439000Y-965380D01*
X-8502500Y-901880D02*
X-8375500Y-901880D01*
X-8185000Y-838380D02*
X-8185000Y-965380D01*
X-8248500Y-901880D02*
X-8121500Y-901880D01*
X-7931000Y-838380D02*
X-7931000Y-965380D01*
X-7994500Y-901880D02*
X-7867500Y-901880D01*
X-7413000Y-1404800D02*
X-7413000Y-1531800D01*
X-7476500Y-1468300D02*
X-7349500Y-1468300D01*
X-7159000Y-1404800D02*
X-7159000Y-1531800D01*
X-7222500Y-1468300D02*
X-7095500Y-1468300D01*
X-6905000Y-1404800D02*
X-6905000Y-1531800D01*
X-6968500Y-1468300D02*
X-6841500Y-1468300D01*
X-6651000Y-1404800D02*
X-6651000Y-1531800D01*
X-6714500Y-1468300D02*
X-6587500Y-1468300D01*
X-6397000Y-1404800D02*
X-6397000Y-1531800D01*
X-6460500Y-1468300D02*
X-6333500Y-1468300D01*
X-6143000Y-1404800D02*
X-6143000Y-1531800D01*
X-6206500Y-1468300D02*
X-6079500Y-1468300D01*
X-7413000Y-1127940D02*
X-7413000Y-1254940D01*
X-7476500Y-1191440D02*
X-7349500Y-1191440D01*
X-7159000Y-1127940D02*
X-7159000Y-1254940D01*
X-7222500Y-1191440D02*
X-7095500Y-1191440D01*
X-6905000Y-1127940D02*
X-6905000Y-1254940D01*
X-6968500Y-1191440D02*
X-6841500Y-1191440D01*
X-6651000Y-1127940D02*
X-6651000Y-1254940D01*
X-6714500Y-1191440D02*
X-6587500Y-1191440D01*
X-6397000Y-1127940D02*
X-6397000Y-1254940D01*
X-6460500Y-1191440D02*
X-6333500Y-1191440D01*
X-6143000Y-1127940D02*
X-6143000Y-1254940D01*
X-6206500Y-1191440D02*
X-6079500Y-1191440D01*
X-7413000Y-851080D02*
X-7413000Y-978080D01*
X-7476500Y-914580D02*
X-7349500Y-914580D01*
X-7159000Y-851080D02*
X-7159000Y-978080D01*
X-7222500Y-914580D02*
X-7095500Y-914580D01*
X-6905000Y-851080D02*
X-6905000Y-978080D01*
X-6968500Y-914580D02*
X-6841500Y-914580D01*
X-6651000Y-851080D02*
X-6651000Y-978080D01*
X-6714500Y-914580D02*
X-6587500Y-914580D01*
X-6397000Y-851080D02*
X-6397000Y-978080D01*
X-6460500Y-914580D02*
X-6333500Y-914580D01*
X-6143000Y-851080D02*
X-6143000Y-978080D01*
X-6206500Y-914580D02*
X-6079500Y-914580D01*
X-5236220Y-696140D02*
X-5236220Y-823140D01*
X-5299720Y-759640D02*
X-5172720Y-759640D01*
X-5236220Y-442140D02*
X-5236220Y-569140D01*
X-5299720Y-505640D02*
X-5172720Y-505640D01*
X-5236220Y-188140D02*
X-5236220Y-315140D01*
X-5299720Y-251640D02*
X-5172720Y-251640D01*
X-5236220Y+65860D02*
X-5236220Y-61140D01*
X-5299720Y+2360D02*
X-5172720Y+2360D01*
X-5236220Y+319860D02*
X-5236220Y+192860D01*
X-5299720Y+256360D02*
X-5172720Y+256360D01*
X-5236220Y+573860D02*
X-5236220Y+446860D01*
X-5299720Y+510360D02*
X-5172720Y+510360D01*
X-8369480Y+1079320D02*
X-8369480Y+952320D01*
X-8432980Y+1015820D02*
X-8305980Y+1015820D01*
X-8115480Y+1079320D02*
X-8115480Y+952320D01*
X-8178980Y+1015820D02*
X-8051980Y+1015820D01*
X-7861480Y+1079320D02*
X-7861480Y+952320D01*
X-7924980Y+1015820D02*
X-7797980Y+1015820D01*
X-7607480Y+1079320D02*
X-7607480Y+952320D01*
X-7670980Y+1015820D02*
X-7543980Y+1015820D01*
X-7353480Y+1079320D02*
X-7353480Y+952320D01*
X-7416980Y+1015820D02*
X-7289980Y+1015820D01*
X-7099480Y+1079320D02*
X-7099480Y+952320D01*
X-7162980Y+1015820D02*
X-7035980Y+1015820D01*
X-6845480Y+1079320D02*
X-6845480Y+952320D01*
X-6908980Y+1015820D02*
X-6781980Y+1015820D01*
X-4956820Y-698680D02*
X-4956820Y-825680D01*
X-5020320Y-762180D02*
X-4893320Y-762180D01*
X-4956820Y-444680D02*
X-4956820Y-571680D01*
X-5020320Y-508180D02*
X-4893320Y-508180D01*
X-4956820Y-190680D02*
X-4956820Y-317680D01*
X-5020320Y-254180D02*
X-4893320Y-254180D01*
X-4956820Y+63320D02*
X-4956820Y-63680D01*
X-5020320Y-180D02*
X-4893320Y-180D01*
X-4956820Y+317320D02*
X-4956820Y+190320D01*
X-5020320Y+253820D02*
X-4893320Y+253820D01*
X-4956820Y+571320D02*
X-4956820Y+444320D01*
X-5020320Y+507820D02*
X-4893320Y+507820D01*
X-5513080Y-693600D02*
X-5513080Y-820600D01*
X-5576580Y-757100D02*
X-5449580Y-757100D01*
X-5513080Y-439600D02*
X-5513080Y-566600D01*
X-5576580Y-503100D02*
X-5449580Y-503100D01*
X-5513080Y-185600D02*
X-5513080Y-312600D01*
X-5576580Y-249100D02*
X-5449580Y-249100D01*
X-5513080Y+68400D02*
X-5513080Y-58600D01*
X-5576580Y+4900D02*
X-5449580Y+4900D01*
X-5513080Y+322400D02*
X-5513080Y+195400D01*
X-5576580Y+258900D02*
X-5449580Y+258900D01*
X-5513080Y+576400D02*
X-5513080Y+449400D01*
X-5576580Y+512900D02*
X-5449580Y+512900D01*
X-5513080Y+830400D02*
X-5513080Y+703400D01*
X-5576580Y+766900D02*
X-5449580Y+766900D01*
X-5513080Y+1084400D02*
X-5513080Y+957400D01*
X-5576580Y+1020900D02*
X-5449580Y+1020900D01*
X-8528340Y+5977120D02*
X-8528340Y+5850120D01*
X-8591840Y+5913620D02*
X-8464840Y+5913620D01*
X-8528340Y+5723120D02*
X-8528340Y+5596120D01*
X-8591840Y+5659620D02*
X-8464840Y+5659620D01*
X-8528340Y+5469120D02*
X-8528340Y+5342120D01*
X-8591840Y+5405620D02*
X-8464840Y+5405620D01*
X-8528340Y+5215120D02*
X-8528340Y+5088120D01*
X-8591840Y+5151620D02*
X-8464840Y+5151620D01*
X-8248340Y+5977120D02*
X-8248340Y+5850120D01*
X-8311840Y+5913620D02*
X-8184840Y+5913620D01*
X-8248340Y+5723120D02*
X-8248340Y+5596120D01*
X-8311840Y+5659620D02*
X-8184840Y+5659620D01*
X-8248340Y+5469120D02*
X-8248340Y+5342120D01*
X-8311840Y+5405620D02*
X-8184840Y+5405620D01*
X-8248340Y+5215120D02*
X-8248340Y+5088120D01*
X-8311840Y+5151620D02*
X-8184840Y+5151620D01*
X-7968340Y+5977120D02*
X-7968340Y+5850120D01*
X-8031840Y+5913620D02*
X-7904840Y+5913620D01*
X-7968340Y+5723120D02*
X-7968340Y+5596120D01*
X-8031840Y+5659620D02*
X-7904840Y+5659620D01*
X-7968340Y+5469120D02*
X-7968340Y+5342120D01*
X-8031840Y+5405620D02*
X-7904840Y+5405620D01*
X-7968340Y+5215120D02*
X-7968340Y+5088120D01*
X-8031840Y+5151620D02*
X-7904840Y+5151620D01*
X-6818340Y+5099120D02*
X-6818340Y+4972120D01*
X-6881840Y+5035620D02*
X-6754840Y+5035620D01*
X-6818340Y+4845120D02*
X-6818340Y+4718120D01*
X-6881840Y+4781620D02*
X-6754840Y+4781620D01*
X-6818340Y+4591120D02*
X-6818340Y+4464120D01*
X-6881840Y+4527620D02*
X-6754840Y+4527620D01*
X-6818340Y+4337120D02*
X-6818340Y+4210120D01*
X-6881840Y+4273620D02*
X-6754840Y+4273620D01*
X-6538340Y+5099120D02*
X-6538340Y+4972120D01*
X-6601840Y+5035620D02*
X-6474840Y+5035620D01*
X-6538340Y+4845120D02*
X-6538340Y+4718120D01*
X-6601840Y+4781620D02*
X-6474840Y+4781620D01*
X-6538340Y+4591120D02*
X-6538340Y+4464120D01*
X-6601840Y+4527620D02*
X-6474840Y+4527620D01*
X-6538340Y+4337120D02*
X-6538340Y+4210120D01*
X-6601840Y+4273620D02*
X-6474840Y+4273620D01*
X-6263280Y+5101260D02*
X-6263280Y+4974260D01*
X-6326780Y+5037760D02*
X-6199780Y+5037760D01*
X-6263280Y+4847260D02*
X-6263280Y+4720260D01*
X-6326780Y+4783760D02*
X-6199780Y+4783760D01*
X-6263280Y+4593260D02*
X-6263280Y+4466260D01*
X-6326780Y+4529760D02*
X-6199780Y+4529760D01*
X-6263280Y+4339260D02*
X-6263280Y+4212260D01*
X-6326780Y+4275760D02*
X-6199780Y+4275760D01*
X-6817000Y+5481260D02*
X-6817000Y+5354260D01*
X-6880500Y+5417760D02*
X-6753500Y+5417760D01*
X-6817000Y+5735260D02*
X-6817000Y+5608260D01*
X-6880500Y+5671760D02*
X-6753500Y+5671760D01*
X-6817000Y+5989260D02*
X-6817000Y+5862260D01*
X-6880500Y+5925760D02*
X-6753500Y+5925760D01*
X-6817000Y+6243260D02*
X-6817000Y+6116260D01*
X-6880500Y+6179760D02*
X-6753500Y+6179760D01*
X-6817000Y+6497260D02*
X-6817000Y+6370260D01*
X-6880500Y+6433760D02*
X-6753500Y+6433760D01*
X-6540140Y+5481260D02*
X-6540140Y+5354260D01*
X-6603640Y+5417760D02*
X-6476640Y+5417760D01*
X-6540140Y+5735260D02*
X-6540140Y+5608260D01*
X-6603640Y+5671760D02*
X-6476640Y+5671760D01*
X-6540140Y+5989260D02*
X-6540140Y+5862260D01*
X-6603640Y+5925760D02*
X-6476640Y+5925760D01*
X-6540140Y+6243260D02*
X-6540140Y+6116260D01*
X-6603640Y+6179760D02*
X-6476640Y+6179760D01*
X-6540140Y+6497260D02*
X-6540140Y+6370260D01*
X-6603640Y+6433760D02*
X-6476640Y+6433760D01*
X-6263280Y+5481260D02*
X-6263280Y+5354260D01*
X-6326780Y+5417760D02*
X-6199780Y+5417760D01*
X-6263280Y+5735260D02*
X-6263280Y+5608260D01*
X-6326780Y+5671760D02*
X-6199780Y+5671760D01*
X-6263280Y+5989260D02*
X-6263280Y+5862260D01*
X-6326780Y+5925760D02*
X-6199780Y+5925760D01*
X-6263280Y+6243260D02*
X-6263280Y+6116260D01*
X-6326780Y+6179760D02*
X-6199780Y+6179760D01*
X-6263280Y+6497260D02*
X-6263280Y+6370260D01*
X-6326780Y+6433760D02*
X-6199780Y+6433760D01*
X-4463080Y+6393260D02*
X-4463080Y+6266260D01*
X-4526580Y+6329760D02*
X-4399580Y+6329760D01*
X-4463080Y+6139260D02*
X-4463080Y+6012260D01*
X-4526580Y+6075760D02*
X-4399580Y+6075760D01*
X-4463080Y+5885260D02*
X-4463080Y+5758260D01*
X-4526580Y+5821760D02*
X-4399580Y+5821760D01*
X-4463080Y+5631260D02*
X-4463080Y+5504260D01*
X-4526580Y+5567760D02*
X-4399580Y+5567760D01*
X-4463080Y+5377260D02*
X-4463080Y+5250260D01*
X-4526580Y+5313760D02*
X-4399580Y+5313760D01*
X-4463080Y+5123260D02*
X-4463080Y+4996260D01*
X-4526580Y+5059760D02*
X-4399580Y+5059760D01*
X-4750100Y+6390720D02*
X-4750100Y+6263720D01*
X-4813600Y+6327220D02*
X-4686600Y+6327220D01*
X-4750100Y+6136720D02*
X-4750100Y+6009720D01*
X-4813600Y+6073220D02*
X-4686600Y+6073220D01*
X-4750100Y+5882720D02*
X-4750100Y+5755720D01*
X-4813600Y+5819220D02*
X-4686600Y+5819220D01*
X-4750100Y+5628720D02*
X-4750100Y+5501720D01*
X-4813600Y+5565220D02*
X-4686600Y+5565220D01*
X-4750100Y+5374720D02*
X-4750100Y+5247720D01*
X-4813600Y+5311220D02*
X-4686600Y+5311220D01*
X-4750100Y+5120720D02*
X-4750100Y+4993720D01*
X-4813600Y+5057220D02*
X-4686600Y+5057220D01*
X-5703900Y+2854240D02*
X-5703900Y+2727240D01*
X-5767400Y+2790740D02*
X-5640400Y+2790740D01*
X-5957900Y+2854240D02*
X-5957900Y+2727240D01*
X-6021400Y+2790740D02*
X-5894400Y+2790740D01*
X-2755960Y+5732580D02*
X-2756177Y+5737827D01*
X-2757942Y+5748322D01*
X-2761634Y+5758817D01*
X-2767662Y+5769312D01*
X-2776884Y+5779692D01*
X-2787379Y+5787380D01*
X-2797874Y+5792298D01*
X-2808369Y+5795104D01*
X-2818864Y+5796077D01*
X-2819460Y+5796080D01*
X-2882960Y+5732580D02*
X-2882743Y+5737827D01*
X-2880978Y+5748322D01*
X-2877286Y+5758817D01*
X-2871258Y+5769312D01*
X-2862036Y+5779692D01*
X-2851541Y+5787380D01*
X-2841046Y+5792298D01*
X-2830551Y+5795104D01*
X-2820056Y+5796077D01*
X-2819460Y+5796080D01*
X-2882960Y+5732580D02*
X-2882743Y+5727333D01*
X-2880978Y+5716838D01*
X-2877286Y+5706343D01*
X-2871258Y+5695848D01*
X-2862036Y+5685468D01*
X-2851541Y+5677780D01*
X-2841046Y+5672862D01*
X-2830551Y+5670056D01*
X-2820056Y+5669083D01*
X-2819460Y+5669080D01*
X-2755960Y+5732580D02*
X-2756177Y+5727333D01*
X-2757942Y+5716838D01*
X-2761634Y+5706343D01*
X-2767662Y+5695848D01*
X-2776884Y+5685468D01*
X-2787379Y+5677780D01*
X-2797874Y+5672862D01*
X-2808369Y+5670056D01*
X-2818864Y+5669083D01*
X-2819460Y+5669080D01*
X-2819460Y+5796080D02*
X-2819460Y+5669080D01*
X-2882960Y+5732580D02*
X-2755960Y+5732580D01*
X-2755960Y+6502580D02*
X-2756177Y+6507827D01*
X-2757942Y+6518322D01*
X-2761634Y+6528817D01*
X-2767662Y+6539312D01*
X-2776884Y+6549692D01*
X-2787379Y+6557380D01*
X-2797874Y+6562298D01*
X-2808369Y+6565104D01*
X-2818864Y+6566077D01*
X-2819460Y+6566080D01*
X-2882960Y+6502580D02*
X-2882743Y+6507827D01*
X-2880978Y+6518322D01*
X-2877286Y+6528817D01*
X-2871258Y+6539312D01*
X-2862036Y+6549692D01*
X-2851541Y+6557380D01*
X-2841046Y+6562298D01*
X-2830551Y+6565104D01*
X-2820056Y+6566077D01*
X-2819460Y+6566080D01*
X-2882960Y+6502580D02*
X-2882743Y+6497333D01*
X-2880978Y+6486838D01*
X-2877286Y+6476343D01*
X-2871258Y+6465848D01*
X-2862036Y+6455468D01*
X-2851541Y+6447780D01*
X-2841046Y+6442862D01*
X-2830551Y+6440056D01*
X-2820056Y+6439083D01*
X-2819460Y+6439080D01*
X-2755960Y+6502580D02*
X-2756177Y+6497333D01*
X-2757942Y+6486838D01*
X-2761634Y+6476343D01*
X-2767662Y+6465848D01*
X-2776884Y+6455468D01*
X-2787379Y+6447780D01*
X-2797874Y+6442862D01*
X-2808369Y+6440056D01*
X-2818864Y+6439083D01*
X-2819460Y+6439080D01*
X-2819460Y+6566080D02*
X-2819460Y+6439080D01*
X-2882960Y+6502580D02*
X-2755960Y+6502580D01*
X-7747000Y+2862119D02*
X-7747000Y+2735119D01*
X-7810500Y+2798619D02*
X-7683500Y+2798619D01*
X-7493000Y+2862119D02*
X-7493000Y+2735119D01*
X-7556500Y+2798619D02*
X-7429500Y+2798619D01*
X-1543920Y+5729940D02*
X-1544137Y+5735187D01*
X-1545902Y+5745682D01*
X-1549594Y+5756177D01*
X-1555622Y+5766672D01*
X-1564844Y+5777052D01*
X-1575339Y+5784740D01*
X-1585834Y+5789658D01*
X-1596329Y+5792464D01*
X-1606824Y+5793437D01*
X-1607420Y+5793440D01*
X-1670920Y+5729940D02*
X-1670703Y+5735187D01*
X-1668938Y+5745682D01*
X-1665246Y+5756177D01*
X-1659218Y+5766672D01*
X-1649996Y+5777052D01*
X-1639501Y+5784740D01*
X-1629006Y+5789658D01*
X-1618511Y+5792464D01*
X-1608016Y+5793437D01*
X-1607420Y+5793440D01*
X-1670920Y+5729940D02*
X-1670703Y+5724693D01*
X-1668938Y+5714198D01*
X-1665246Y+5703703D01*
X-1659218Y+5693208D01*
X-1649996Y+5682828D01*
X-1639501Y+5675140D01*
X-1629006Y+5670222D01*
X-1618511Y+5667416D01*
X-1608016Y+5666443D01*
X-1607420Y+5666440D01*
X-1543920Y+5729940D02*
X-1544137Y+5724693D01*
X-1545902Y+5714198D01*
X-1549594Y+5703703D01*
X-1555622Y+5693208D01*
X-1564844Y+5682828D01*
X-1575339Y+5675140D01*
X-1585834Y+5670222D01*
X-1596329Y+5667416D01*
X-1606824Y+5666443D01*
X-1607420Y+5666440D01*
X-1607420Y+5793440D02*
X-1607420Y+5666440D01*
X-1670920Y+5729940D02*
X-1543920Y+5729940D01*
X-1543920Y+6499940D02*
X-1544137Y+6505187D01*
X-1545902Y+6515682D01*
X-1549594Y+6526177D01*
X-1555622Y+6536672D01*
X-1564844Y+6547052D01*
X-1575339Y+6554740D01*
X-1585834Y+6559658D01*
X-1596329Y+6562464D01*
X-1606824Y+6563437D01*
X-1607420Y+6563440D01*
X-1670920Y+6499940D02*
X-1670703Y+6505187D01*
X-1668938Y+6515682D01*
X-1665246Y+6526177D01*
X-1659218Y+6536672D01*
X-1649996Y+6547052D01*
X-1639501Y+6554740D01*
X-1629006Y+6559658D01*
X-1618511Y+6562464D01*
X-1608016Y+6563437D01*
X-1607420Y+6563440D01*
X-1670920Y+6499940D02*
X-1670703Y+6494693D01*
X-1668938Y+6484198D01*
X-1665246Y+6473703D01*
X-1659218Y+6463208D01*
X-1649996Y+6452828D01*
X-1639501Y+6445140D01*
X-1629006Y+6440222D01*
X-1618511Y+6437416D01*
X-1608016Y+6436443D01*
X-1607420Y+6436440D01*
X-1543920Y+6499940D02*
X-1544137Y+6494693D01*
X-1545902Y+6484198D01*
X-1549594Y+6473703D01*
X-1555622Y+6463208D01*
X-1564844Y+6452828D01*
X-1575339Y+6445140D01*
X-1585834Y+6440222D01*
X-1596329Y+6437416D01*
X-1606824Y+6436443D01*
X-1607420Y+6436440D01*
X-1607420Y+6563440D02*
X-1607420Y+6436440D01*
X-1670920Y+6499940D02*
X-1543920Y+6499940D01*
X-3293380Y+682960D02*
X-3293380Y+555960D01*
X-3356880Y+619460D02*
X-3229880Y+619460D01*
X-3039380Y+682960D02*
X-3039380Y+555960D01*
X-3102880Y+619460D02*
X-2975880Y+619460D01*
X-2785380Y+682960D02*
X-2785380Y+555960D01*
X-2848880Y+619460D02*
X-2721880Y+619460D01*
X-2531380Y+682960D02*
X-2531380Y+555960D01*
X-2594880Y+619460D02*
X-2467880Y+619460D01*
X-2277380Y+682960D02*
X-2277380Y+555960D01*
X-2340880Y+619460D02*
X-2213880Y+619460D01*
X-2023380Y+682960D02*
X-2023380Y+555960D01*
X-2086880Y+619460D02*
X-1959880Y+619460D01*
X-3290840Y-312200D02*
X-3290840Y-439200D01*
X-3354340Y-375700D02*
X-3227340Y-375700D01*
X-3036840Y-312200D02*
X-3036840Y-439200D01*
X-3100340Y-375700D02*
X-2973340Y-375700D01*
X-2782840Y-312200D02*
X-2782840Y-439200D01*
X-2846340Y-375700D02*
X-2719340Y-375700D01*
X-2528840Y-312200D02*
X-2528840Y-439200D01*
X-2592340Y-375700D02*
X-2465340Y-375700D01*
X-2274840Y-312200D02*
X-2274840Y-439200D01*
X-2338340Y-375700D02*
X-2211340Y-375700D01*
X-2020840Y-312200D02*
X-2020840Y-439200D01*
X-2084340Y-375700D02*
X-1957340Y-375700D01*
X-362000Y+261141D02*
X-362000Y+134141D01*
X-425500Y+197641D02*
X-298500Y+197641D01*
X-616000Y+261141D02*
X-616000Y+134141D01*
X-679500Y+197641D02*
X-552500Y+197641D01*
X-870000Y+261141D02*
X-870000Y+134141D01*
X-933500Y+197641D02*
X-806500Y+197641D01*
X-1124000Y+261141D02*
X-1124000Y+134141D01*
X-1187500Y+197641D02*
X-1060500Y+197641D01*
X-7198000Y+1876640D02*
X-7198000Y+1749640D01*
X-7261500Y+1813140D02*
X-7134500Y+1813140D01*
X-6944000Y+1876640D02*
X-6944000Y+1749640D01*
X-7007500Y+1813140D02*
X-6880500Y+1813140D01*
X-6690000Y+1876640D02*
X-6690000Y+1749640D01*
X-6753500Y+1813140D02*
X-6626500Y+1813140D01*
X-6436000Y+1876640D02*
X-6436000Y+1749640D01*
X-6499500Y+1813140D02*
X-6372500Y+1813140D01*
X-6777819Y+2861139D02*
X-6777819Y+2734139D01*
X-6841319Y+2797639D02*
X-6714319Y+2797639D01*
X-6159600Y+1878700D02*
X-6159600Y+1751700D01*
X-6223100Y+1815200D02*
X-6096100Y+1815200D01*
X-5368520Y+3987880D02*
X-5368520Y+3860880D01*
X-5432020Y+3924380D02*
X-5305020Y+3924380D01*
X-4868520Y+3987880D02*
X-4868520Y+3860880D01*
X-4932020Y+3924380D02*
X-4805020Y+3924380D01*
X-2492901Y+4422542D02*
X-2403099Y+4332740D01*
X-2492901Y+4332740D02*
X-2403099Y+4422542D01*
X-1984901Y+4422542D02*
X-1895099Y+4332740D01*
X-1984901Y+4332740D02*
X-1895099Y+4422542D01*
X-4207641Y+2373500D02*
X-4207641Y+2246500D01*
X-4271141Y+2310000D02*
X-4144141Y+2310000D01*
X-4707641Y+2373500D02*
X-4707641Y+2246500D01*
X-4771141Y+2310000D02*
X-4644141Y+2310000D01*
X-3278340Y+3267120D02*
X-3278340Y+3140120D01*
X-3341840Y+3203620D02*
X-3214840Y+3203620D01*
X-3323241Y+3248521D02*
X-3233439Y+3158719D01*
X-3323241Y+3158719D02*
X-3233439Y+3248521D01*
X-3278340Y+2505120D02*
X-3278340Y+2378120D01*
X-3341840Y+2441620D02*
X-3214840Y+2441620D01*
X-3323241Y+2486521D02*
X-3233439Y+2396719D01*
X-3323241Y+2396719D02*
X-3233439Y+2486521D01*
X-3278340Y+1997120D02*
X-3278340Y+1870120D01*
X-3341840Y+1933620D02*
X-3214840Y+1933620D01*
X-3323241Y+1978521D02*
X-3233439Y+1888719D01*
X-3323241Y+1888719D02*
X-3233439Y+1978521D01*
X-1246340Y+1235120D02*
X-1246340Y+1108120D01*
X-1309840Y+1171620D02*
X-1182840Y+1171620D01*
X-1291241Y+1216521D02*
X-1201439Y+1126719D01*
X-1291241Y+1126719D02*
X-1201439Y+1216521D01*
X-1246340Y+2251120D02*
X-1246340Y+2124120D01*
X-1309840Y+2187620D02*
X-1182840Y+2187620D01*
X-1291241Y+2232521D02*
X-1201439Y+2142719D01*
X-1291241Y+2142719D02*
X-1201439Y+2232521D01*
X-1246340Y+3267120D02*
X-1246340Y+3140120D01*
X-1309840Y+3203620D02*
X-1182840Y+3203620D01*
X-1291241Y+3248521D02*
X-1201439Y+3158719D01*
X-1291241Y+3158719D02*
X-1201439Y+3248521D01*
X-10230000Y-2750000D02*
X+880000Y-2750000D01*
X+880000Y+7510000D01*
X-10230000Y+7510000D01*
X-10230000Y-2750000D01*
D46*
X-10255400Y-4274000D02*
X-7611260Y-4274000D01*
X-7611260Y-3029400D01*
X-10255400Y-3029400D01*
X-10255400Y-4274000D01*
D47*
X-9788038Y-3029400D02*
X-9788038Y-4274000D01*
X-8975238Y-3029400D02*
X-8975238Y-4274000D01*
X-8142118Y-3029400D02*
X-8142118Y-4274000D01*
X-10255400Y-3302450D02*
X-7611260Y-3302450D01*
X-10255400Y-3543750D02*
X-7611260Y-3543750D01*
X-10255400Y-3785050D02*
X-7611260Y-3785050D01*
X-10255400Y-4026350D02*
X-7611260Y-4026350D01*
D46*
X-10198250Y-3193230D02*
X-10183010Y-3208470D01*
X-10122050Y-3208470D01*
X-10106810Y-3193230D01*
X-10106810Y-3177990D01*
X-10122050Y-3162750D01*
X-10183010Y-3162750D01*
X-10198250Y-3147510D01*
X-10198250Y-3132270D01*
X-10183010Y-3117030D01*
X-10122050Y-3117030D01*
X-10106810Y-3132270D01*
X-9984890Y-3117030D02*
X-10076330Y-3208470D01*
X-10076330Y-3117030D02*
X-10030610Y-3162750D01*
X-9954410Y-3208470D02*
X-9954410Y-3117030D01*
X-9908690Y-3162750D01*
X-9862970Y-3117030D01*
X-9862970Y-3208470D01*
X-9730890Y-3193230D02*
X-9715650Y-3208470D01*
X-9654690Y-3208470D01*
X-9639450Y-3193230D01*
X-9639450Y-3177990D01*
X-9654690Y-3162750D01*
X-9715650Y-3162750D01*
X-9730890Y-3147510D01*
X-9730890Y-3132270D01*
X-9715650Y-3117030D01*
X-9654690Y-3117030D01*
X-9639450Y-3132270D01*
X-9593730Y-3117030D02*
X-9532770Y-3117030D01*
X-9563250Y-3117030D02*
X-9563250Y-3208470D01*
X-9593730Y-3208470D02*
X-9532770Y-3208470D01*
X-9487050Y-3117030D02*
X-9395610Y-3117030D01*
X-9487050Y-3208470D01*
X-9395610Y-3208470D01*
X-9273690Y-3208470D02*
X-9365130Y-3208470D01*
X-9365130Y-3117030D01*
X-9273690Y-3117030D01*
X-9365130Y-3162750D02*
X-9304170Y-3162750D01*
X-8918090Y-3208470D02*
X-8918090Y-3117030D01*
X-8841890Y-3117030D01*
X-8826650Y-3132270D01*
X-8826650Y-3147510D01*
X-8841890Y-3162750D01*
X-8918090Y-3162750D01*
X-8796170Y-3117030D02*
X-8796170Y-3208470D01*
X-8704730Y-3208470D01*
X-8674250Y-3208470D02*
X-8674250Y-3147510D01*
X-8643770Y-3117030D01*
X-8613290Y-3117030D01*
X-8582810Y-3147510D01*
X-8582810Y-3208470D01*
X-8674250Y-3177990D02*
X-8582810Y-3177990D01*
X-8552330Y-3117030D02*
X-8460890Y-3117030D01*
X-8506610Y-3117030D02*
X-8506610Y-3208470D01*
X-8338970Y-3208470D02*
X-8430410Y-3208470D01*
X-8430410Y-3117030D01*
X-8338970Y-3117030D01*
X-8430410Y-3162750D02*
X-8369450Y-3162750D01*
X-8308490Y-3208470D02*
X-8308490Y-3117030D01*
X-8247530Y-3117030D01*
X-8217050Y-3147510D01*
X-8217050Y-3177990D01*
X-8247530Y-3208470D01*
X-8308490Y-3208470D01*
X-8084970Y-3147510D02*
X-8054490Y-3117030D01*
X-8024010Y-3117030D01*
X-7993530Y-3147510D01*
X-7993530Y-3177990D01*
X-8024010Y-3208470D01*
X-8054490Y-3208470D01*
X-8084970Y-3177990D01*
X-8084970Y-3147510D01*
X-8024010Y-3177990D02*
X-7993530Y-3208470D01*
X-7963050Y-3117030D02*
X-7871610Y-3117030D01*
X-7917330Y-3117030D02*
X-7917330Y-3208470D01*
X-7749690Y-3117030D02*
X-7841130Y-3208470D01*
X-7841130Y-3117030D02*
X-7795410Y-3162750D01*
D14*
X-10009020Y-3353250D02*
X-10009020Y-3480250D01*
X-10072520Y-3416750D02*
X-9945520Y-3416750D01*
D46*
X-9686440Y-3404050D02*
X-9661040Y-3378650D01*
X-9661040Y-3454850D01*
X-9572140Y-3442150D02*
X-9559440Y-3442150D01*
X-9559440Y-3454850D01*
X-9572140Y-3454850D01*
X-9572140Y-3442150D01*
X-9508640Y-3442150D02*
X-9508640Y-3391350D01*
X-9495940Y-3378650D01*
X-9445140Y-3378650D01*
X-9432440Y-3391350D01*
X-9432440Y-3442150D01*
X-9445140Y-3454850D01*
X-9495940Y-3454850D01*
X-9508640Y-3442150D01*
X-9508640Y-3454850D02*
X-9432440Y-3378650D01*
X-9381640Y-3404050D02*
X-9356240Y-3378650D01*
X-9356240Y-3454850D01*
X-9229240Y-3391350D02*
X-9241940Y-3378650D01*
X-9280040Y-3378650D01*
X-9292740Y-3391350D01*
X-9292740Y-3442150D01*
X-9280040Y-3454850D01*
X-9241940Y-3454850D01*
X-9229240Y-3442150D01*
X-9229240Y-3429450D01*
X-9241940Y-3416750D01*
X-9292740Y-3416750D01*
X-9203840Y-3454850D02*
X-9203840Y-3404050D01*
X-9203840Y-3416750D02*
X-9191140Y-3404050D01*
X-9165740Y-3429450D01*
X-9140340Y-3404050D01*
X-9127640Y-3416750D01*
X-9127640Y-3454850D01*
X-9102240Y-3454850D02*
X-9102240Y-3404050D01*
X-9102240Y-3416750D02*
X-9089540Y-3404050D01*
X-9064140Y-3429450D01*
X-9038740Y-3404050D01*
X-9026040Y-3416750D01*
X-9026040Y-3454850D01*
X-8810140Y-3378650D02*
X-8886340Y-3454850D01*
X-8886340Y-3378650D02*
X-8848240Y-3416750D01*
X-8708540Y-3454850D02*
X-8784740Y-3454850D01*
X-8784740Y-3378650D01*
X-8708540Y-3378650D01*
X-8784740Y-3416750D02*
X-8733940Y-3416750D01*
X-8683140Y-3442150D02*
X-8670440Y-3454850D01*
X-8619640Y-3454850D01*
X-8606940Y-3442150D01*
X-8606940Y-3429450D01*
X-8619640Y-3416750D01*
X-8670440Y-3416750D01*
X-8683140Y-3404050D01*
X-8683140Y-3391350D01*
X-8670440Y-3378650D01*
X-8619640Y-3378650D01*
X-8606940Y-3391350D01*
X-8015120Y-3404050D02*
X-7989720Y-3378650D01*
X-7989720Y-3454850D01*
X-7862720Y-3429450D02*
X-7938920Y-3429450D01*
X-7888120Y-3378650D01*
X-7888120Y-3454850D01*
X-7761120Y-3429450D02*
X-7837320Y-3429450D01*
X-7786520Y-3378650D01*
X-7786520Y-3454850D01*
D14*
X-10053921Y-3613149D02*
X-9964119Y-3702951D01*
X-10053921Y-3702951D02*
X-9964119Y-3613149D01*
D46*
X-9686440Y-3645350D02*
X-9661040Y-3619950D01*
X-9661040Y-3696150D01*
X-9572140Y-3683450D02*
X-9559440Y-3683450D01*
X-9559440Y-3696150D01*
X-9572140Y-3696150D01*
X-9572140Y-3683450D01*
X-9483240Y-3645350D02*
X-9457840Y-3619950D01*
X-9457840Y-3696150D01*
X-9330840Y-3670750D02*
X-9407040Y-3670750D01*
X-9356240Y-3619950D01*
X-9356240Y-3696150D01*
X-9292740Y-3632650D02*
X-9280040Y-3619950D01*
X-9241940Y-3619950D01*
X-9229240Y-3632650D01*
X-9229240Y-3645350D01*
X-9241940Y-3658050D01*
X-9229240Y-3670750D01*
X-9229240Y-3683450D01*
X-9241940Y-3696150D01*
X-9280040Y-3696150D01*
X-9292740Y-3683450D01*
X-9267340Y-3658050D02*
X-9241940Y-3658050D01*
X-9203840Y-3696150D02*
X-9203840Y-3645350D01*
X-9203840Y-3658050D02*
X-9191140Y-3645350D01*
X-9165740Y-3670750D01*
X-9140340Y-3645350D01*
X-9127640Y-3658050D01*
X-9127640Y-3696150D01*
X-9102240Y-3696150D02*
X-9102240Y-3645350D01*
X-9102240Y-3658050D02*
X-9089540Y-3645350D01*
X-9064140Y-3670750D01*
X-9038740Y-3645350D01*
X-9026040Y-3658050D01*
X-9026040Y-3696150D01*
X-8810140Y-3619950D02*
X-8886340Y-3696150D01*
X-8886340Y-3619950D02*
X-8848240Y-3658050D01*
X-8708540Y-3696150D02*
X-8784740Y-3696150D01*
X-8784740Y-3619950D01*
X-8708540Y-3619950D01*
X-8784740Y-3658050D02*
X-8733940Y-3658050D01*
X-8683140Y-3683450D02*
X-8670440Y-3696150D01*
X-8619640Y-3696150D01*
X-8606940Y-3683450D01*
X-8606940Y-3670750D01*
X-8619640Y-3658050D01*
X-8670440Y-3658050D01*
X-8683140Y-3645350D01*
X-8683140Y-3632650D01*
X-8670440Y-3619950D01*
X-8619640Y-3619950D01*
X-8606940Y-3632650D01*
X-8027820Y-3632650D02*
X-8015120Y-3619950D01*
X-7977020Y-3619950D01*
X-7964320Y-3632650D01*
X-7964320Y-3645350D01*
X-7977020Y-3658050D01*
X-8015120Y-3658050D01*
X-8027820Y-3670750D01*
X-8027820Y-3696150D01*
X-7964320Y-3696150D01*
D14*
X-10009020Y-3835850D02*
X-10009020Y-3962850D01*
X-10072520Y-3899350D02*
X-9945520Y-3899350D01*
X-10053921Y-3854449D02*
X-9964119Y-3944251D01*
X-10053921Y-3944251D02*
X-9964119Y-3854449D01*
D46*
X-9686440Y-3886650D02*
X-9661040Y-3861250D01*
X-9661040Y-3937450D01*
X-9572140Y-3924750D02*
X-9559440Y-3924750D01*
X-9559440Y-3937450D01*
X-9572140Y-3937450D01*
X-9572140Y-3924750D01*
X-9432440Y-3861250D02*
X-9495940Y-3861250D01*
X-9495940Y-3886650D01*
X-9445140Y-3886650D01*
X-9432440Y-3899350D01*
X-9432440Y-3924750D01*
X-9445140Y-3937450D01*
X-9483240Y-3937450D01*
X-9495940Y-3924750D01*
X-9394340Y-3873950D02*
X-9381640Y-3861250D01*
X-9343540Y-3861250D01*
X-9330840Y-3873950D01*
X-9330840Y-3886650D01*
X-9343540Y-3899350D01*
X-9381640Y-3899350D01*
X-9394340Y-3912050D01*
X-9394340Y-3937450D01*
X-9330840Y-3937450D01*
X-9229240Y-3912050D02*
X-9305440Y-3912050D01*
X-9254640Y-3861250D01*
X-9254640Y-3937450D01*
X-9203840Y-3937450D02*
X-9203840Y-3886650D01*
X-9203840Y-3899350D02*
X-9191140Y-3886650D01*
X-9165740Y-3912050D01*
X-9140340Y-3886650D01*
X-9127640Y-3899350D01*
X-9127640Y-3937450D01*
X-9102240Y-3937450D02*
X-9102240Y-3886650D01*
X-9102240Y-3899350D02*
X-9089540Y-3886650D01*
X-9064140Y-3912050D01*
X-9038740Y-3886650D01*
X-9026040Y-3899350D01*
X-9026040Y-3937450D01*
X-8810140Y-3861250D02*
X-8886340Y-3937450D01*
X-8886340Y-3861250D02*
X-8848240Y-3899350D01*
X-8708540Y-3937450D02*
X-8784740Y-3937450D01*
X-8784740Y-3861250D01*
X-8708540Y-3861250D01*
X-8784740Y-3899350D02*
X-8733940Y-3899350D01*
X-8683140Y-3924750D02*
X-8670440Y-3937450D01*
X-8619640Y-3937450D01*
X-8606940Y-3924750D01*
X-8606940Y-3912050D01*
X-8619640Y-3899350D01*
X-8670440Y-3899350D01*
X-8683140Y-3886650D01*
X-8683140Y-3873950D01*
X-8670440Y-3861250D01*
X-8619640Y-3861250D01*
X-8606940Y-3873950D01*
X-7964320Y-3873950D02*
X-7977020Y-3861250D01*
X-8015120Y-3861250D01*
X-8027820Y-3873950D01*
X-8027820Y-3924750D01*
X-8015120Y-3937450D01*
X-7977020Y-3937450D01*
X-7964320Y-3924750D01*
X-7964320Y-3912050D01*
X-7977020Y-3899350D01*
X-8027820Y-3899350D01*
D14*
X-9945520Y-4140650D02*
X-9945737Y-4135403D01*
X-9947502Y-4124908D01*
X-9951194Y-4114413D01*
X-9957222Y-4103918D01*
X-9966444Y-4093538D01*
X-9976939Y-4085850D01*
X-9987434Y-4080932D01*
X-9997929Y-4078126D01*
X-10008424Y-4077153D01*
X-10009020Y-4077150D01*
X-10072520Y-4140650D02*
X-10072303Y-4135403D01*
X-10070538Y-4124908D01*
X-10066846Y-4114413D01*
X-10060818Y-4103918D01*
X-10051596Y-4093538D01*
X-10041101Y-4085850D01*
X-10030606Y-4080932D01*
X-10020111Y-4078126D01*
X-10009616Y-4077153D01*
X-10009020Y-4077150D01*
X-10072520Y-4140650D02*
X-10072303Y-4145897D01*
X-10070538Y-4156392D01*
X-10066846Y-4166887D01*
X-10060818Y-4177382D01*
X-10051596Y-4187762D01*
X-10041101Y-4195450D01*
X-10030606Y-4200368D01*
X-10020111Y-4203174D01*
X-10009616Y-4204147D01*
X-10009020Y-4204150D01*
X-9945520Y-4140650D02*
X-9945737Y-4145897D01*
X-9947502Y-4156392D01*
X-9951194Y-4166887D01*
X-9957222Y-4177382D01*
X-9966444Y-4187762D01*
X-9976939Y-4195450D01*
X-9987434Y-4200368D01*
X-9997929Y-4203174D01*
X-10008424Y-4204147D01*
X-10009020Y-4204150D01*
X-10009020Y-4077150D02*
X-10009020Y-4204150D01*
X-10072520Y-4140650D02*
X-9945520Y-4140650D01*
D46*
X-9686440Y-4127950D02*
X-9661040Y-4102550D01*
X-9661040Y-4178750D01*
X-9572140Y-4166050D02*
X-9559440Y-4166050D01*
X-9559440Y-4178750D01*
X-9572140Y-4178750D01*
X-9572140Y-4166050D01*
X-9432440Y-4115250D02*
X-9445140Y-4102550D01*
X-9483240Y-4102550D01*
X-9495940Y-4115250D01*
X-9495940Y-4166050D01*
X-9483240Y-4178750D01*
X-9445140Y-4178750D01*
X-9432440Y-4166050D01*
X-9432440Y-4153350D01*
X-9445140Y-4140650D01*
X-9495940Y-4140650D01*
X-9330840Y-4102550D02*
X-9394340Y-4102550D01*
X-9394340Y-4127950D01*
X-9343540Y-4127950D01*
X-9330840Y-4140650D01*
X-9330840Y-4166050D01*
X-9343540Y-4178750D01*
X-9381640Y-4178750D01*
X-9394340Y-4166050D01*
X-9280040Y-4127950D02*
X-9254640Y-4102550D01*
X-9254640Y-4178750D01*
X-9203840Y-4178750D02*
X-9203840Y-4127950D01*
X-9203840Y-4140650D02*
X-9191140Y-4127950D01*
X-9165740Y-4153350D01*
X-9140340Y-4127950D01*
X-9127640Y-4140650D01*
X-9127640Y-4178750D01*
X-9102240Y-4178750D02*
X-9102240Y-4127950D01*
X-9102240Y-4140650D02*
X-9089540Y-4127950D01*
X-9064140Y-4153350D01*
X-9038740Y-4127950D01*
X-9026040Y-4140650D01*
X-9026040Y-4178750D01*
X-8810140Y-4102550D02*
X-8886340Y-4178750D01*
X-8886340Y-4102550D02*
X-8848240Y-4140650D01*
X-8708540Y-4178750D02*
X-8784740Y-4178750D01*
X-8784740Y-4102550D01*
X-8708540Y-4102550D01*
X-8784740Y-4140650D02*
X-8733940Y-4140650D01*
X-8683140Y-4166050D02*
X-8670440Y-4178750D01*
X-8619640Y-4178750D01*
X-8606940Y-4166050D01*
X-8606940Y-4153350D01*
X-8619640Y-4140650D01*
X-8670440Y-4140650D01*
X-8683140Y-4127950D01*
X-8683140Y-4115250D01*
X-8670440Y-4102550D01*
X-8619640Y-4102550D01*
X-8606940Y-4115250D01*
X-7964320Y-4153350D02*
X-8040520Y-4153350D01*
X-7989720Y-4102550D01*
X-7989720Y-4178750D01*
M02*
