M48
METRIC,TZ
T01C1.0160
T02C1.6510
T03C1.1430
T04C1.5240
%
T01
X-92010Y-14683
X-89470Y-14683
X-86930Y-14683
X-84390Y-14683
X-81850Y-14683
X-79310Y-14683
X-92069Y-11864
X-89529Y-11864
X-86989Y-11864
X-84449Y-11864
X-81909Y-11864
X-79369Y-11864
X-92010Y-9019
X-89470Y-9019
X-86930Y-9019
X-84390Y-9019
X-81850Y-9019
X-79310Y-9019
X-74130Y-14683
X-71590Y-14683
X-69050Y-14683
X-66510Y-14683
X-63970Y-14683
X-61430Y-14683
X-74130Y-11914
X-71590Y-11914
X-69050Y-11914
X-66510Y-11914
X-63970Y-11914
X-61430Y-11914
X-74130Y-9146
X-71590Y-9146
X-69050Y-9146
X-66510Y-9146
X-63970Y-9146
X-61430Y-9146
X-52362Y-7596
X-52362Y-5056
X-52362Y-2516
X-52362Y+24
X-52362Y+2564
X-52362Y+5104
X-83695Y+10158
X-81155Y+10158
X-78615Y+10158
X-76075Y+10158
X-73535Y+10158
X-70995Y+10158
X-68455Y+10158
X-49568Y-7622
X-49568Y-5082
X-49568Y-2542
X-49568Y-2
X-49568Y+2538
X-49568Y+5078
X-55131Y-7571
X-55131Y-5031
X-55131Y-2491
X-55131Y+49
X-55131Y+2589
X-55131Y+5129
X-55131Y+7669
X-55131Y+10209
X-85283Y+59136
X-85283Y+56596
X-85283Y+54056
X-85283Y+51516
X-82483Y+59136
X-82483Y+56596
X-82483Y+54056
X-82483Y+51516
X-79683Y+59136
X-79683Y+56596
X-79683Y+54056
X-79683Y+51516
X-68183Y+50356
X-68183Y+47816
X-68183Y+45276
X-68183Y+42736
X-65383Y+50356
X-65383Y+47816
X-65383Y+45276
X-65383Y+42736
X-62633Y+50378
X-62633Y+47838
X-62633Y+45298
X-62633Y+42758
X-68170Y+54178
X-68170Y+56718
X-68170Y+59258
X-68170Y+61798
X-68170Y+64338
X-65401Y+54178
X-65401Y+56718
X-65401Y+59258
X-65401Y+61798
X-65401Y+64338
X-62633Y+54178
X-62633Y+56718
X-62633Y+59258
X-62633Y+61798
X-62633Y+64338
X-44631Y+63298
X-44631Y+60758
X-44631Y+58218
X-44631Y+55678
X-44631Y+53138
X-44631Y+50598
X-47501Y+63272
X-47501Y+60732
X-47501Y+58192
X-47501Y+55652
X-47501Y+53112
X-47501Y+50572
X-57039Y+27907
X-59579Y+27907
X-77470Y+27986
X-74930Y+27986
X-32934Y+6195
X-30394Y+6195
X-27854Y+6195
X-25314Y+6195
X-22774Y+6195
X-20234Y+6195
X-32908Y-3757
X-30368Y-3757
X-27828Y-3757
X-25288Y-3757
X-22748Y-3757
X-20208Y-3757
X-3620Y+1976
X-6160Y+1976
X-8700Y+1976
X-11240Y+1976
X-71980Y+18131
X-69440Y+18131
X-66900Y+18131
X-64360Y+18131
X-67778Y+27976
X-61596Y+18152
X-53685Y+39244
X-48685Y+39244
X-42076Y+23100
X-47076Y+23100
T02
X-28195Y+57326
X-28195Y+65026
X-16074Y+57299
X-16074Y+64999
T03
X-24480Y+43776
X-19400Y+43776
T04
X-32783Y+32036
X-32783Y+24416
X-32783Y+19336
X-12463Y+11716
X-12463Y+21876
X-12463Y+32036
M30
