G04 PROTEUS RS274X GERBER FILE*
%FSLAX45Y45*%
%MOMM*%
G01*
%ADD10R,2.032000X2.032000*%
%ADD11R,6.350000X6.350000*%
%ADD12C,3.048000*%
%ADD13C,4.318000*%
%ADD14C,0.203200*%
%TD.AperFunction*%
D10*
X-9201000Y-1468300D03*
X-8947000Y-1468300D03*
X-8693000Y-1468300D03*
X-8439000Y-1468300D03*
X-8185000Y-1468300D03*
X-7931000Y-1468300D03*
X-9206880Y-1186360D03*
X-8952880Y-1186360D03*
X-8698880Y-1186360D03*
X-8444880Y-1186360D03*
X-8190880Y-1186360D03*
X-7936880Y-1186360D03*
X-9201000Y-901880D03*
X-8947000Y-901880D03*
X-8693000Y-901880D03*
X-8439000Y-901880D03*
X-8185000Y-901880D03*
X-7931000Y-901880D03*
X-7413000Y-1468300D03*
X-7159000Y-1468300D03*
X-6905000Y-1468300D03*
X-6651000Y-1468300D03*
X-6397000Y-1468300D03*
X-6143000Y-1468300D03*
X-7413000Y-1191440D03*
X-7159000Y-1191440D03*
X-6905000Y-1191440D03*
X-6651000Y-1191440D03*
X-6397000Y-1191440D03*
X-6143000Y-1191440D03*
X-7413000Y-914580D03*
X-7159000Y-914580D03*
X-6905000Y-914580D03*
X-6651000Y-914580D03*
X-6397000Y-914580D03*
X-6143000Y-914580D03*
X-5236220Y-759640D03*
X-5236220Y-505640D03*
X-5236220Y-251640D03*
X-5236220Y+2360D03*
X-5236220Y+256360D03*
X-5236220Y+510360D03*
X-8369480Y+1015820D03*
X-8115480Y+1015820D03*
X-7861480Y+1015820D03*
X-7607480Y+1015820D03*
X-7353480Y+1015820D03*
X-7099480Y+1015820D03*
X-6845480Y+1015820D03*
X-4956820Y-762180D03*
X-4956820Y-508180D03*
X-4956820Y-254180D03*
X-4956820Y-180D03*
X-4956820Y+253820D03*
X-4956820Y+507820D03*
X-5513080Y-757100D03*
X-5513080Y-503100D03*
X-5513080Y-249100D03*
X-5513080Y+4900D03*
X-5513080Y+258900D03*
X-5513080Y+512900D03*
X-5513080Y+766900D03*
X-5513080Y+1020900D03*
X-8528340Y+5913620D03*
X-8528340Y+5659620D03*
X-8528340Y+5405620D03*
X-8528340Y+5151620D03*
X-8248340Y+5913620D03*
X-8248340Y+5659620D03*
X-8248340Y+5405620D03*
X-8248340Y+5151620D03*
X-7968340Y+5913620D03*
X-7968340Y+5659620D03*
X-7968340Y+5405620D03*
X-7968340Y+5151620D03*
X-6818340Y+5035620D03*
X-6818340Y+4781620D03*
X-6818340Y+4527620D03*
X-6818340Y+4273620D03*
X-6538340Y+5035620D03*
X-6538340Y+4781620D03*
X-6538340Y+4527620D03*
X-6538340Y+4273620D03*
X-6263280Y+5037760D03*
X-6263280Y+4783760D03*
X-6263280Y+4529760D03*
X-6263280Y+4275760D03*
X-6817000Y+5417760D03*
X-6817000Y+5671760D03*
X-6817000Y+5925760D03*
X-6817000Y+6179760D03*
X-6817000Y+6433760D03*
X-6540140Y+5417760D03*
X-6540140Y+5671760D03*
X-6540140Y+5925760D03*
X-6540140Y+6179760D03*
X-6540140Y+6433760D03*
X-6263280Y+5417760D03*
X-6263280Y+5671760D03*
X-6263280Y+5925760D03*
X-6263280Y+6179760D03*
X-6263280Y+6433760D03*
X-4463080Y+6329760D03*
X-4463080Y+6075760D03*
X-4463080Y+5821760D03*
X-4463080Y+5567760D03*
X-4463080Y+5313760D03*
X-4463080Y+5059760D03*
X-4750100Y+6327220D03*
X-4750100Y+6073220D03*
X-4750100Y+5819220D03*
X-4750100Y+5565220D03*
X-4750100Y+5311220D03*
X-4750100Y+5057220D03*
X-5703900Y+2790740D03*
X-5957900Y+2790740D03*
D11*
X-2819460Y+5732580D03*
X-2819460Y+6502580D03*
D10*
X-7747000Y+2798619D03*
X-7493000Y+2798619D03*
D11*
X-1607420Y+5729940D03*
X-1607420Y+6499940D03*
D10*
X-3293380Y+619460D03*
X-3039380Y+619460D03*
X-2785380Y+619460D03*
X-2531380Y+619460D03*
X-2277380Y+619460D03*
X-2023380Y+619460D03*
X-3290840Y-375700D03*
X-3036840Y-375700D03*
X-2782840Y-375700D03*
X-2528840Y-375700D03*
X-2274840Y-375700D03*
X-2020840Y-375700D03*
X-362000Y+197641D03*
X-616000Y+197641D03*
X-870000Y+197641D03*
X-1124000Y+197641D03*
X-7198000Y+1813140D03*
X-6944000Y+1813140D03*
X-6690000Y+1813140D03*
X-6436000Y+1813140D03*
X-6777819Y+2797639D03*
X-6159600Y+1815200D03*
D12*
X-2448000Y+4377641D03*
X-1940000Y+4377641D03*
D13*
X-3278340Y+3203620D03*
X-3278340Y+2441620D03*
X-3278340Y+1933620D03*
X-1246340Y+1171620D03*
X-1246340Y+2187620D03*
X-1246340Y+3203620D03*
D14*
X-10230000Y-2750000D02*
X+880000Y-2750000D01*
X+880000Y+7510000D01*
X-10230000Y+7510000D01*
X-10230000Y-2750000D01*
M02*
